<?xml version="1.0" encoding="utf-8"?>
<!-- Generator: Adobe Illustrator 16.0.0, SVG Export Plug-In . SVG Version: 6.00 Build 0)  -->
<!DOCTYPE svg PUBLIC "-//W3C//DTD SVG 1.1//EN" "http://www.w3.org/Graphics/SVG/1.1/DTD/svg11.dtd">
<svg version="1.1" id="Layer_1" xmlns="http://www.w3.org/2000/svg" xmlns:xlink="http://www.w3.org/1999/xlink" x="0px" y="0px"
	 width="24px" height="24px" viewBox="0 0 24 24" enable-background="new 0 0 24 24" xml:space="preserve">
<g>
	<defs>
		<rect id="SVGID_1_" width="24" height="24"/>
	</defs>
	<clipPath id="SVGID_2_">
		<use xlink:href="#SVGID_1_"  overflow="visible"/>
	</clipPath>
	<path clip-path="url(#SVGID_2_)" d="M23,3.768c0,1.1-0.9,2-2,2c-0.18,0-0.35-0.02-0.51-0.07l-3.561,3.55
		C16.98,9.408,17,9.588,17,9.768c0,1.1-0.9,2-2,2s-2-0.9-2-2c0-0.18,0.02-0.359,0.07-0.52l-2.55-2.55
		c-0.16,0.05-0.34,0.07-0.52,0.07s-0.36-0.02-0.52-0.07l-4.55,4.56c0.05,0.16,0.07,0.33,0.07,0.51c0,1.1-0.9,2-2,2s-2-0.9-2-2
		s0.9-2,2-2c0.18,0,0.35,0.02,0.51,0.07l4.56-4.55C8.02,5.127,8,4.948,8,4.768c0-1.1,0.9-2,2-2s2,0.9,2,2
		c0,0.18-0.02,0.36-0.07,0.52l2.55,2.55c0.16-0.05,0.34-0.07,0.52-0.07s0.359,0.02,0.52,0.07l3.551-3.56
		C19.02,4.118,19,3.948,19,3.768c0-1.1,0.9-2,2-2S23,2.667,23,3.768z"/>
</g>
<path d="M13.934,12.238l-7.141,5.978l0.139,0.447l3.492,0.239l2.172,2.746l0.446-0.14L13.934,12.238z"/>
</svg>
